<?xml version="1.0" encoding="UTF-8" standalone="no"?><!DOCTYPE svg PUBLIC "-//W3C//DTD SVG 1.1//EN" "http://www.w3.org/Graphics/SVG/1.1/DTD/svg11.dtd"><svg width="100%" height="100%" viewBox="0 0 23 23" version="1.1" xmlns="http://www.w3.org/2000/svg" xmlns:xlink="http://www.w3.org/1999/xlink" xml:space="preserve" xmlns:serif="http://www.serif.com/" style="fill-rule:evenodd;clip-rule:evenodd;stroke-linejoin:round;stroke-miterlimit:1.41421;"><g><path d="M11.473,0c-6.326,0 -11.473,5.147 -11.473,11.473c0,6.326 5.147,11.473 11.473,11.473c6.326,0 11.473,-5.147 11.473,-11.473c0,-6.326 -5.147,-11.473 -11.473,-11.473Zm0,20.505c-4.98,0 -9.032,-4.052 -9.032,-9.032c0,-4.98 4.052,-9.032 9.032,-9.032c4.98,0 9.032,4.052 9.032,9.032c0,4.98 -4.052,9.032 -9.032,9.032Z" style="fill:#ff862a;fill-rule:nonzero;"/><path d="M17.452,11.119l-5.156,0l0,-6.2c0,-0.521 -0.423,-0.944 -0.944,-0.944c-0.522,0 -0.945,0.423 -0.945,0.944l0,7.144c0,0.522 0.423,0.945 0.945,0.945l6.1,0c0.522,0 0.945,-0.423 0.945,-0.945c0,-0.521 -0.423,-0.944 -0.945,-0.944Z" style="fill:#ff862a;fill-rule:nonzero;"/></g></svg>