<?xml version="1.0" encoding="UTF-8" standalone="no"?><!DOCTYPE svg PUBLIC "-//W3C//DTD SVG 1.1//EN" "http://www.w3.org/Graphics/SVG/1.1/DTD/svg11.dtd"><svg width="100%" height="100%" viewBox="0 0 24 24" version="1.1" xmlns="http://www.w3.org/2000/svg" xmlns:xlink="http://www.w3.org/1999/xlink" xml:space="preserve" xmlns:serif="http://www.serif.com/" style="fill-rule:evenodd;clip-rule:evenodd;stroke-linejoin:round;stroke-miterlimit:1.41421;"><rect id="Artboard1" x="0" y="0" width="24" height="24" style="fill:none;"/><g><path d="M9.389,10.841l-0.297,-0.097c-0.155,-0.05 -0.322,0.035 -0.372,0.19c-0.051,0.155 0.034,0.322 0.19,0.373l0.296,0.096c-0.042,0.193 -0.064,0.392 -0.064,0.597c0,0.205 0.022,0.404 0.064,0.597l-0.296,0.096c-0.156,0.051 -0.241,0.217 -0.19,0.373c0.04,0.125 0.156,0.204 0.281,0.204c0.03,0 0.061,-0.005 0.091,-0.014l0.297,-0.097c0.165,0.37 0.405,0.698 0.702,0.965l-0.184,0.253c-0.096,0.132 -0.066,0.317 0.066,0.413c0.052,0.038 0.113,0.057 0.173,0.057c0.092,0 0.182,-0.043 0.24,-0.122l0.183,-0.253c0.341,0.198 0.725,0.328 1.135,0.37l0,0.311c0,0.164 0.133,0.296 0.296,0.296c0.163,0 0.296,-0.132 0.296,-0.296l0,-0.311c0.41,-0.042 0.794,-0.172 1.135,-0.37l0.183,0.253c0.058,0.079 0.148,0.122 0.24,0.122c0.06,0 0.121,-0.019 0.173,-0.057c0.132,-0.096 0.162,-0.281 0.066,-0.413l-0.184,-0.253c0.297,-0.267 0.537,-0.595 0.702,-0.965l0.297,0.097c0.03,0.009 0.061,0.014 0.091,0.014c0.125,0 0.24,-0.079 0.281,-0.204c0.05,-0.155 -0.034,-0.322 -0.19,-0.373l-0.296,-0.096c0.042,-0.193 0.064,-0.392 0.064,-0.597c0,-0.205 -0.023,-0.404 -0.064,-0.597l0.296,-0.096c0.156,-0.051 0.241,-0.218 0.19,-0.373c-0.05,-0.155 -0.217,-0.24 -0.372,-0.19l-0.297,0.097c-0.165,-0.37 -0.405,-0.698 -0.702,-0.966l0.184,-0.252c0.096,-0.132 0.066,-0.317 -0.066,-0.413c-0.132,-0.096 -0.317,-0.067 -0.413,0.065l-0.183,0.253c-0.341,-0.198 -0.725,-0.328 -1.135,-0.37l0,-0.311c0,-0.164 -0.133,-0.296 -0.296,-0.296c-0.163,0 -0.296,0.132 -0.296,0.296l0,0.311c-0.41,0.042 -0.794,0.172 -1.135,0.37l-0.183,-0.253c-0.096,-0.132 -0.281,-0.161 -0.413,-0.065c-0.132,0.096 -0.162,0.281 -0.066,0.413l0.184,0.253c-0.297,0.267 -0.537,0.595 -0.702,0.965Zm2.611,-1.107c1.25,0 2.266,1.016 2.266,2.266c0,1.25 -1.016,2.266 -2.266,2.266c-1.25,0 -2.266,-1.016 -2.266,-2.266c0,-1.25 1.016,-2.266 2.266,-2.266Z" style="fill:#76cad4;fill-rule:nonzero;"/><path d="M18.55,5.45c-1.75,-1.749 -4.076,-2.713 -6.55,-2.713c-2.474,0 -4.8,0.964 -6.55,2.713c-1.749,1.75 -2.713,4.076 -2.713,6.55c0,2.474 0.964,4.8 2.713,6.55c1.75,1.749 4.076,2.713 6.55,2.713c1.584,0 3.148,-0.407 4.522,-1.177c0.143,-0.08 0.193,-0.26 0.113,-0.403c-0.079,-0.142 -0.26,-0.193 -0.402,-0.113c-1.286,0.721 -2.75,1.102 -4.233,1.102c-4.782,0 -8.672,-3.89 -8.672,-8.672c0,-4.782 3.89,-8.672 8.672,-8.672c4.782,0 8.672,3.89 8.672,8.672c0,1.483 -0.382,2.947 -1.103,4.233c-0.079,0.143 -0.029,0.323 0.114,0.403c0.142,0.08 0.322,0.029 0.402,-0.113c0.771,-1.375 1.178,-2.939 1.178,-4.523c0,-2.474 -0.964,-4.8 -2.713,-6.55Z" style="fill:#76cad4;fill-rule:nonzero;"/><path d="M18.341,16.764c-0.87,0 -1.577,0.707 -1.577,1.577c0,0.869 0.707,1.576 1.577,1.576c0.869,0 1.576,-0.707 1.576,-1.576c0,-0.87 -0.707,-1.577 -1.576,-1.577Zm0,2.562c-0.544,0 -0.986,-0.442 -0.986,-0.985c0,-0.544 0.442,-0.986 0.986,-0.986c0.543,0 0.985,0.442 0.985,0.986c0,0.543 -0.442,0.985 -0.985,0.985Z" style="fill:#76cad4;fill-rule:nonzero;"/><path d="M7.506,16.494c1.239,1.239 2.866,1.859 4.494,1.859c1.628,0 3.255,-0.62 4.494,-1.859c2.478,-2.478 2.478,-6.51 0,-8.988c-1.791,-1.792 -4.471,-2.348 -6.829,-1.419c-0.037,0.015 -0.072,0.037 -0.1,0.066c-0.116,0.115 -0.116,0.302 0,0.418c0.087,0.087 0.216,0.108 0.324,0.063c2.136,-0.839 4.564,-0.333 6.187,1.29c2.248,2.247 2.248,5.905 0,8.152c-1.124,1.124 -2.6,1.686 -4.076,1.686c-1.476,0 -2.953,-0.562 -4.076,-1.686c-1.625,-1.624 -2.13,-4.056 -1.287,-6.194c0.06,-0.152 -0.015,-0.323 -0.167,-0.383c-0.152,-0.06 -0.323,0.014 -0.383,0.166c-0.929,2.358 -0.372,5.038 1.419,6.829Z" style="fill:#76cad4;fill-rule:nonzero;"/><path d="M7.715,6.138c-0.421,0 -0.817,0.164 -1.115,0.462c-0.298,0.298 -0.462,0.694 -0.462,1.115c0,0.421 0.164,0.817 0.462,1.115c0.298,0.297 0.694,0.461 1.115,0.461c0.421,0 0.817,-0.164 1.115,-0.461c0.614,-0.615 0.614,-1.615 0,-2.23c-0.298,-0.298 -0.694,-0.462 -1.115,-0.462Zm0.697,2.274c-0.187,0.186 -0.434,0.288 -0.697,0.288c-0.263,0 -0.511,-0.102 -0.697,-0.288c-0.186,-0.187 -0.289,-0.434 -0.289,-0.697c0,-0.263 0.103,-0.511 0.289,-0.697c0.186,-0.186 0.434,-0.289 0.697,-0.289c0.263,0 0.51,0.103 0.697,0.289c0.384,0.384 0.384,1.009 0,1.394Z" style="fill:#76cad4;fill-rule:nonzero;"/></g></svg>