<?xml version="1.0" encoding="UTF-8" standalone="no"?><!DOCTYPE svg PUBLIC "-//W3C//DTD SVG 1.1//EN" "http://www.w3.org/Graphics/SVG/1.1/DTD/svg11.dtd"><svg width="100%" height="100%" viewBox="0 0 24 24" version="1.1" xmlns="http://www.w3.org/2000/svg" xmlns:xlink="http://www.w3.org/1999/xlink" xml:space="preserve" xmlns:serif="http://www.serif.com/" style="fill-rule:evenodd;clip-rule:evenodd;stroke-linejoin:round;stroke-miterlimit:1.41421;"><rect id="Artboard1" x="0" y="0" width="24" height="24" style="fill:none;"/><g><path d="M12,4.51c-3.629,0 -6.582,2.856 -6.582,6.364c0,2.277 0.924,3.632 1.605,4.63c0.418,0.614 0.655,0.98 0.655,1.347c0,0.826 0.443,1.604 1.229,2.187c0.02,0.49 0.092,1.685 0.092,1.685c0,0 0,0.001 0,0.001c0.013,0.34 0.192,1.035 1.361,1.424c0.138,0.202 0.319,0.382 0.538,0.529c0.137,0.092 0.299,0.143 0.465,0.143l1.274,0c0.166,0 0.328,-0.049 0.465,-0.143c0.22,-0.147 0.401,-0.327 0.538,-0.529c1.18,-0.393 1.352,-1.096 1.362,-1.426c0,0 0.071,-1.193 0.091,-1.683c0.787,-0.584 1.229,-1.362 1.229,-2.187c0,-0.368 0.237,-0.734 0.66,-1.353c0.675,-0.99 1.601,-2.345 1.601,-4.625c0,-3.51 -2.953,-6.364 -6.583,-6.364Zm3.602,10.056c-0.486,0.713 -0.944,1.386 -0.944,2.285c0,0.395 -0.358,0.714 -0.624,0.897l-4.067,0c-0.266,-0.183 -0.624,-0.502 -0.624,-0.897c0,-0.899 -0.459,-1.572 -0.95,-2.293c-0.614,-0.9 -1.31,-1.921 -1.31,-3.683c0,-2.591 2.206,-4.7 4.918,-4.701c2.712,0 4.918,2.109 4.918,4.7c0,1.766 -0.698,2.786 -1.317,3.692Z" style="fill:#76cad4;fill-rule:nonzero;"/><path d="M12,3.261c0.23,0 0.416,-0.186 0.416,-0.416l0,-1.248c0,-0.23 -0.186,-0.417 -0.416,-0.417c-0.23,0 -0.416,0.187 -0.416,0.417l0,1.248c0,0.23 0.186,0.416 0.416,0.416Z" style="fill:#76cad4;fill-rule:nonzero;"/><path d="M7.579,4.141c0.077,0.134 0.217,0.208 0.361,0.208c0.07,0 0.142,-0.018 0.208,-0.055c0.199,-0.115 0.267,-0.37 0.152,-0.569l-0.624,-1.081c-0.115,-0.199 -0.37,-0.267 -0.569,-0.152c-0.199,0.115 -0.267,0.369 -0.152,0.568l0.624,1.081Z" style="fill:#76cad4;fill-rule:nonzero;"/><path d="M5.175,6.545l-1.081,-0.624c-0.199,-0.115 -0.453,-0.046 -0.568,0.153c-0.115,0.198 -0.047,0.453 0.152,0.568l1.081,0.624c0.065,0.038 0.137,0.056 0.208,0.056c0.144,0 0.283,-0.075 0.361,-0.208c0.114,-0.199 0.046,-0.454 -0.153,-0.569Z" style="fill:#76cad4;fill-rule:nonzero;"/><path d="M4.295,10.966c0,-0.23 -0.186,-0.416 -0.416,-0.416l-1.248,0c-0.23,0 -0.417,0.186 -0.417,0.416c0,0.23 0.187,0.416 0.417,0.416l1.248,0c0.23,0 0.416,-0.186 0.416,-0.416Z" style="fill:#76cad4;fill-rule:nonzero;"/><path d="M4.759,14.666l-1.081,0.624c-0.199,0.115 -0.268,0.369 -0.153,0.568c0.077,0.134 0.217,0.208 0.361,0.208c0.07,0 0.142,-0.018 0.207,-0.056l1.081,-0.623c0.2,-0.115 0.268,-0.37 0.153,-0.568c-0.114,-0.2 -0.369,-0.268 -0.568,-0.153Z" style="fill:#76cad4;fill-rule:nonzero;"/><path d="M20.323,15.291l-1.081,-0.625c-0.2,-0.115 -0.454,-0.047 -0.569,0.152c-0.115,0.2 -0.047,0.454 0.152,0.569l1.081,0.624c0.067,0.038 0.137,0.055 0.208,0.055c0.144,0 0.283,-0.074 0.361,-0.207c0.114,-0.199 0.047,-0.454 -0.152,-0.568Z" style="fill:#76cad4;fill-rule:nonzero;"/><path d="M21.37,10.55l-1.247,0c-0.231,0 -0.417,0.186 -0.417,0.416c0,0.23 0.186,0.416 0.416,0.416l1.248,0c0.229,0 0.416,-0.186 0.416,-0.415c0,-0.23 -0.186,-0.417 -0.416,-0.417Z" style="fill:#76cad4;fill-rule:nonzero;"/><path d="M19.033,7.321c0.071,0 0.143,-0.018 0.208,-0.056l1.081,-0.623c0.2,-0.115 0.268,-0.369 0.153,-0.568c-0.115,-0.199 -0.37,-0.268 -0.568,-0.152l-1.081,0.623c-0.2,0.115 -0.268,0.37 -0.153,0.568c0.077,0.134 0.217,0.208 0.36,0.208Z" style="fill:#76cad4;fill-rule:nonzero;"/><path d="M15.853,4.293c0.065,0.038 0.137,0.056 0.207,0.056c0.144,0 0.284,-0.075 0.361,-0.208l0.623,-1.081c0.115,-0.199 0.048,-0.453 -0.152,-0.568c-0.199,-0.115 -0.453,-0.047 -0.568,0.152l-0.624,1.081c-0.114,0.198 -0.046,0.453 0.153,0.568Z" style="fill:#76cad4;fill-rule:nonzero;"/><path d="M11.442,13.479c0.05,0.369 0.229,0.471 0.558,0.471c0.329,0 0.508,-0.102 0.559,-0.471l0.393,-2.968c0.025,-0.202 0.05,-0.405 0.05,-0.595l0,-1.472c0,-0.647 -0.368,-0.977 -1.002,-0.977c-0.635,0 -1.003,0.33 -1.003,0.977l0,1.472c0,0.19 0.026,0.393 0.051,0.595l0.394,2.968Z" style="fill:#76cad4;fill-rule:nonzero;"/><path d="M12,14.773c-0.571,0 -1.04,0.469 -1.04,1.04c0,0.571 0.469,1.04 1.04,1.04c0.571,0 1.04,-0.469 1.04,-1.04c0.001,-0.571 -0.469,-1.04 -1.04,-1.04Z" style="fill:#76cad4;fill-rule:nonzero;"/></g></svg>