<?xml version="1.0" encoding="UTF-8" standalone="no"?><!DOCTYPE svg PUBLIC "-//W3C//DTD SVG 1.1//EN" "http://www.w3.org/Graphics/SVG/1.1/DTD/svg11.dtd"><svg width="100%" height="100%" viewBox="0 0 30 30" version="1.1" xmlns="http://www.w3.org/2000/svg" xmlns:xlink="http://www.w3.org/1999/xlink" xml:space="preserve" xmlns:serif="http://www.serif.com/" style="fill-rule:evenodd;clip-rule:evenodd;stroke-linejoin:round;stroke-miterlimit:1.41421;"><g><path d="M29.625,14.812c0,8.181 -6.632,14.813 -14.813,14.813c-8.18,0 -14.812,-6.632 -14.812,-14.813c0,-8.181 6.632,-14.812 14.813,-14.812c8.18,0 14.812,6.631 14.812,14.812" style="fill:#fff;fill-rule:nonzero;"/><path d="M15.828,17.765c-0.767,-0.059 -1.089,-0.44 -1.69,-0.805c-0.331,1.734 -0.734,3.396 -1.931,4.265c-0.369,-2.621 0.543,-4.589 0.966,-6.678c-0.722,-1.215 0.087,-3.66 1.608,-3.057c1.874,0.741 -1.621,4.516 0.725,4.988c2.449,0.492 3.45,-4.251 1.931,-5.793c-2.195,-2.227 -6.389,-0.051 -5.874,3.138c0.126,0.779 0.932,1.015 0.323,2.092c-1.405,-0.312 -1.824,-1.42 -1.77,-2.897c0.086,-2.418 2.172,-4.111 4.263,-4.345c2.646,-0.296 5.129,0.972 5.472,3.46c0.385,2.809 -1.195,5.851 -4.023,5.632m-0.819,-11.277c-4.661,0 -8.439,3.778 -8.439,8.44c0,4.661 3.778,8.439 8.439,8.439c4.662,0 8.44,-3.778 8.44,-8.439c0,-4.662 -3.778,-8.44 -8.44,-8.44" style="fill:#063b36;fill-rule:nonzero;"/></g></svg>