<?xml version="1.0" encoding="UTF-8" standalone="no"?><!DOCTYPE svg PUBLIC "-//W3C//DTD SVG 1.1//EN" "http://www.w3.org/Graphics/SVG/1.1/DTD/svg11.dtd"><svg width="100%" height="100%" viewBox="0 0 24 24" version="1.1" xmlns="http://www.w3.org/2000/svg" xmlns:xlink="http://www.w3.org/1999/xlink" xml:space="preserve" xmlns:serif="http://www.serif.com/" style="fill-rule:evenodd;clip-rule:evenodd;stroke-linejoin:round;stroke-miterlimit:1.41421;"><rect id="Artboard1" x="0" y="0" width="24" height="24" style="fill:none;"/><clipPath id="_clip1"><rect x="0" y="0" width="24" height="24"/></clipPath><g clip-path="url(#_clip1)"><g><path d="M23.818,8.13l-13.596,-6.495c-0.158,-0.077 -0.349,-0.01 -0.423,0.147l-2.959,6.193l1.612,0l2.172,-4.55l11.787,5.63l-3.686,7.715l-2.075,-0.991l0,4.079l1.276,0.609c0.159,0.077 0.348,0.008 0.423,-0.15l5.619,-11.766c0.077,-0.156 0.01,-0.346 -0.15,-0.421Z" style="fill:#76cad4;fill-rule:nonzero;"/><path d="M15.387,8.723l-15.068,0c-0.175,0 -0.319,0.142 -0.319,0.316l0,13.04c0,0.175 0.144,0.318 0.319,0.318l15.068,0c0.175,0 0.318,-0.143 0.318,-0.318l0,-13.04c0.001,-0.174 -0.142,-0.316 -0.318,-0.316Zm-0.87,9.994l-0.955,0c-0.556,-1.427 -1.241,-3.424 -2.28,-3.157c-1.218,0.311 -1.826,3.157 -1.826,3.157c0,0 -0.623,-3.211 -2.342,-4.931c-1.719,-1.719 -3.384,4.931 -3.384,4.931l-2.276,0l0,-8.552l13.063,0l0,8.552Z" style="fill:#76cad4;fill-rule:nonzero;"/><circle cx="3.563" cy="12" r="1.066" style="fill:#76cad4;"/><path d="M10.713,12.752c0.239,0 0.463,-0.025 0.662,-0.064c0.233,0.098 0.516,0.158 0.821,0.158c0.787,0 1.423,-0.384 1.423,-0.858c0,-0.472 -0.636,-0.856 -1.423,-0.856c-0.294,0 -0.568,0.053 -0.794,0.147c-0.094,-0.091 -0.219,-0.147 -0.358,-0.147l-0.206,0c-0.264,0 -0.472,0.2 -0.502,0.454c-0.636,0.067 -1.109,0.297 -1.109,0.572c0,0.328 0.665,0.594 1.486,0.594Z" style="fill:#76cad4;fill-rule:nonzero;"/></g></g></svg>