<?xml version="1.0" encoding="UTF-8" standalone="no"?><!DOCTYPE svg PUBLIC "-//W3C//DTD SVG 1.1//EN" "http://www.w3.org/Graphics/SVG/1.1/DTD/svg11.dtd"><svg width="100%" height="100%" viewBox="0 0 24 24" version="1.1" xmlns="http://www.w3.org/2000/svg" xmlns:xlink="http://www.w3.org/1999/xlink" xml:space="preserve" xmlns:serif="http://www.serif.com/" style="fill-rule:evenodd;clip-rule:evenodd;stroke-linejoin:round;stroke-miterlimit:1.41421;"><rect id="Artboard1" x="0" y="0" width="24" height="24" style="fill:none;"/><g><g><path d="M22.927,12.306c-0.239,-0.426 -0.798,-0.585 -1.25,-0.319l-3.03,1.754l-0.771,0.452l0,4.201l0.717,0.425c0.027,0 0.027,0.027 0.054,0.027l2.977,1.728c0.133,0.106 0.319,0.159 0.505,0.159c0.505,0 0.904,-0.398 0.904,-0.903l0,-3.563l0.027,-3.509c0,-0.16 -0.027,-0.319 -0.133,-0.452Z" style="fill:#76cad4;fill-rule:nonzero;"/><path d="M5.221,10.95c2.366,0 4.28,-1.914 4.28,-4.28c0,-2.367 -1.914,-4.281 -4.28,-4.281c-2.366,0 -4.281,1.914 -4.281,4.281c-0.026,2.366 1.915,4.28 4.281,4.28Zm0,-6.035c0.983,0 1.754,0.797 1.754,1.755c0,0.983 -0.797,1.754 -1.754,1.754c-0.957,0 -1.755,-0.797 -1.755,-1.754c-0.027,-0.984 0.771,-1.755 1.755,-1.755Z" style="fill:#76cad4;fill-rule:nonzero;"/><path d="M16.068,11.189c-0.691,0.346 -1.462,0.558 -2.287,0.558c-1.01,0 -1.967,-0.292 -2.765,-0.824l-3.03,0c-0.798,0.532 -1.755,0.824 -2.765,0.824c-0.824,0 -1.595,-0.186 -2.287,-0.558c-0.611,0.346 -1.036,1.037 -1.036,1.781l0,6.487c0,1.197 0.983,2.154 2.153,2.154l10.927,0c1.196,0 2.153,-0.984 2.153,-2.154l0,-6.487c-0.026,-0.744 -0.452,-1.435 -1.063,-1.781Z" style="fill:#76cad4;fill-rule:nonzero;"/><path d="M13.781,10.95c2.367,0 4.281,-1.914 4.281,-4.28c0,-2.367 -1.914,-4.281 -4.281,-4.281c-2.366,0 -4.28,1.914 -4.28,4.281c0,2.366 1.914,4.28 4.28,4.28Zm0,-6.035c0.984,0 1.755,0.797 1.755,1.755c0,0.983 -0.798,1.754 -1.755,1.754c-0.957,0 -1.754,-0.797 -1.754,-1.754c0,-0.984 0.771,-1.755 1.754,-1.755Z" style="fill:#76cad4;fill-rule:nonzero;"/></g></g></svg>