<?xml version="1.0" encoding="UTF-8" standalone="no"?><!DOCTYPE svg PUBLIC "-//W3C//DTD SVG 1.1//EN" "http://www.w3.org/Graphics/SVG/1.1/DTD/svg11.dtd"><svg width="100%" height="100%" viewBox="0 0 24 24" version="1.1" xmlns="http://www.w3.org/2000/svg" xmlns:xlink="http://www.w3.org/1999/xlink" xml:space="preserve" xmlns:serif="http://www.serif.com/" style="fill-rule:evenodd;clip-rule:evenodd;stroke-linejoin:round;stroke-miterlimit:1.41421;"><rect id="Artboard1" x="0" y="0" width="24" height="24" style="fill:none;"/><g><path d="M22.692,12.193c-0.043,-0.216 -0.19,-0.773 -0.671,-1.598c-1.249,-2.141 -3.846,-5.871 -5.42,-6.56c-2.085,-0.913 -4.678,1.54 -3.875,2.76c0.802,1.219 1.955,-0.606 3.273,0.369c0.813,0.6 1.624,2.409 2.127,3.709l-12.223,0c0.503,-1.3 1.314,-3.109 2.127,-3.709c1.318,-0.975 2.471,0.85 3.274,-0.369c0.802,-1.22 -1.791,-3.673 -3.876,-2.76c-1.573,0.689 -4.171,4.419 -5.419,6.56c-0.353,0.604 -0.526,1.064 -0.61,1.352c-0.104,0.229 -0.162,0.483 -0.162,0.75l0,5.641c0,1.006 0.819,1.825 1.825,1.825l5.222,-0.001c0.221,0 0.431,-0.068 0.61,-0.197l3.171,-2.292l3.024,2.281c0.179,0.135 0.402,0.21 0.627,0.21l5.222,0c1.006,0 1.825,-0.819 1.825,-1.826l0,-5.641c0,-0.175 -0.025,-0.344 -0.071,-0.504Zm-2.011,5.889l-4.617,0l-3.359,-2.534c-0.179,-0.135 -0.402,-0.209 -0.627,-0.209c-0.22,0 -0.431,0.068 -0.609,0.197l-3.522,2.544l-4.628,0.001l0,-5.126l17.362,0l0,5.127Z" style="fill:#76cad4;fill-rule:nonzero;"/><path d="M9.488,13.797c-0.003,0 -0.005,0.001 -0.008,0.001l-5.59,0.002l0,3.638l3.644,0l3.004,-2.171c-0.102,-1.318 -0.756,-1.47 -1.05,-1.47Z" style="fill:#76cad4;fill-rule:nonzero;"/><path d="M14.512,13.814c-0.295,0 -0.948,0.152 -1.051,1.47l3.005,2.17l3.644,0.001l0,-3.638c0,0 -5.596,-0.003 -5.598,-0.003Zm5.102,3.145l-2.988,0l-2.637,-1.906c0.056,-0.323 0.187,-0.723 0.499,-0.742l5.126,0.002l0,2.646Z" style="fill:#76cad4;fill-rule:nonzero;"/></g></svg>