<?xml version="1.0" encoding="UTF-8" standalone="no"?><!DOCTYPE svg PUBLIC "-//W3C//DTD SVG 1.1//EN" "http://www.w3.org/Graphics/SVG/1.1/DTD/svg11.dtd"><svg width="100%" height="100%" viewBox="0 0 24 24" version="1.1" xmlns="http://www.w3.org/2000/svg" xmlns:xlink="http://www.w3.org/1999/xlink" xml:space="preserve" xmlns:serif="http://www.serif.com/" style="fill-rule:evenodd;clip-rule:evenodd;stroke-linejoin:round;stroke-miterlimit:1.41421;"><rect id="Artboard1" x="0" y="0" width="24" height="24" style="fill:none;"/><g><circle cx="13.103" cy="4.163" r="1.723" style="fill:#76cad4;"/><path d="M15.934,3.77c0.002,-0.53 -0.15,-1.05 -0.446,-1.505c-0.401,-0.617 -1.019,-1.041 -1.74,-1.194c-0.72,-0.152 -1.457,-0.015 -2.074,0.386c-0.458,0.299 -0.81,0.716 -1.023,1.207c-0.303,0.116 -0.563,0.44 -0.651,0.858c-0.125,0.587 0.135,1.139 0.58,1.233c0.114,0.025 0.23,0.016 0.341,-0.02l0.329,-1.557c0.138,-0.453 0.427,-0.839 0.828,-1.1c0.452,-0.293 0.99,-0.393 1.517,-0.282c0.527,0.112 0.978,0.422 1.272,0.873c0.294,0.451 0.394,0.99 0.282,1.517l-0.283,1.384c0.087,0.078 0.189,0.133 0.303,0.157c0.445,0.094 0.906,-0.305 1.031,-0.892c0.09,-0.429 -0.024,-0.838 -0.266,-1.065Z" style="fill:#76cad4;fill-rule:nonzero;"/><path d="M5.369,12.706l-4.143,0c-0.323,0 -0.584,0.261 -0.584,0.584l0,10.081l5.312,0l0,-10.081c0,-0.323 -0.262,-0.584 -0.585,-0.584Zm-2.071,8.538c-0.675,0 -1.222,-0.547 -1.222,-1.222c0,-0.675 0.547,-1.222 1.222,-1.222c0.675,0 1.222,0.547 1.222,1.222c0,0.675 -0.547,1.222 -1.222,1.222Zm0,-3.778c-0.975,0 -1.766,-0.79 -1.766,-1.765c0,-0.975 0.791,-1.765 1.766,-1.765c0.975,0 1.765,0.79 1.765,1.765c0,0.975 -0.79,1.765 -1.765,1.765Z" style="fill:#76cad4;fill-rule:nonzero;"/><path d="M22.774,12.72l-4.143,0c-0.323,0 -0.585,0.262 -0.585,0.585l0,10.081l5.312,0l0,-10.081c0,-0.323 -0.261,-0.585 -0.584,-0.585Zm-2.072,8.401c-0.675,0 -1.222,-0.547 -1.222,-1.222c0,-0.675 0.547,-1.223 1.222,-1.223c0.675,0 1.222,0.548 1.222,1.223c0,0.675 -0.547,1.222 -1.222,1.222Zm0,-3.778c-0.975,0 -1.765,-0.79 -1.765,-1.765c0,-0.975 0.79,-1.766 1.765,-1.766c0.975,0 1.766,0.791 1.766,1.766c0,0.975 -0.791,1.765 -1.766,1.765Z" style="fill:#76cad4;fill-rule:nonzero;"/><circle cx="3.298" cy="15.701" r="0.654" style="fill:#76cad4;"/><circle cx="3.298" cy="20.022" r="0.453" style="fill:#76cad4;"/><circle cx="20.702" cy="15.578" r="0.654" style="fill:#76cad4;"/><circle cx="20.702" cy="19.899" r="0.453" style="fill:#76cad4;"/><path d="M17.231,8.941c-0.796,-0.654 -1.708,-1.4 -2.164,-1.771c-0.192,-0.157 -0.416,-0.264 -0.659,-0.315c-0.932,-0.198 -3.328,-0.705 -3.615,-0.766l-2.787,-0.94l-0.431,-3.853c-0.047,-0.421 -0.427,-0.725 -0.848,-0.677c-0.421,0.047 -0.724,0.427 -0.677,0.848l0.485,4.338c0.033,0.296 0.235,0.547 0.517,0.642l3.104,1.047l-0.812,3.837c0.023,0.009 0.047,0.019 0.069,0.03c0.121,-0.059 0.257,-0.092 0.4,-0.092c0.887,0 0.856,-0.003 0.94,0.009c0.162,-0.144 0.374,-0.231 0.607,-0.231l1.78,0l0.959,-0.913l0.322,-1.52l1.169,0.963c-0.408,0.392 -1.409,1.354 -1.725,1.657c-0.156,0.151 -0.235,0.352 -0.235,0.554l-2.27,0c-0.096,0 -0.173,0.077 -0.173,0.172l0,0.753l-0.387,0l0,-0.53c0,-0.096 -0.077,-0.173 -0.173,-0.173l-0.814,0c-0.096,0 -0.173,0.077 -0.173,0.173l0,0.53l-0.453,0l0,-0.53c0,-0.096 -0.077,-0.173 -0.173,-0.173l-0.815,0c-0.095,0 -0.172,0.077 -0.172,0.173l0,0.531c-0.317,0.007 -0.572,0.265 -0.572,0.584l0,10.081l9.09,0l0,-10.082c0,-0.322 -0.262,-0.584 -0.584,-0.584l-0.28,0l0,-0.753c0,-0.095 -0.077,-0.173 -0.173,-0.173l-0.003,0c0.807,-0.776 0.982,-0.944 1.769,-1.701c0.331,-0.317 0.311,-0.853 -0.043,-1.145Z" style="fill:#76cad4;fill-rule:nonzero;"/></g></svg>